<?xml version="1.0" standalone="no"?>
<!DOCTYPE svg PUBLIC "-//W3C//DTD SVG 20010904//EN"
 "http://www.w3.org/TR/2001/REC-SVG-20010904/DTD/svg10.dtd">
<svg version="1.0" xmlns="http://www.w3.org/2000/svg"
 width="195.000000pt" height="195.000000pt" viewBox="0 0 195.000000 195.000000"
 preserveAspectRatio="xMidYMid meet">
<metadata>
Created by potrace 1.14, written by Peter Selinger 2001-2017
</metadata>
<g transform="translate(0.000000,195.000000) scale(0.100000,-0.100000)"
fill="#000000" stroke="none">
<path d="M1272 1596 c-51 -102 -92 -193 -92 -202 0 -17 561 -1144 570 -1144 3
0 47 85 99 188 l93 189 -289 578 -289 578 -92 -187z"/>
<path d="M496 1583 l-93 -188 286 -572 c157 -315 288 -573 291 -573 3 0 47 84
99 188 l93 187 -59 120 c-227 456 -514 1025 -518 1025 -3 0 -47 -84 -99 -187z"/>
<path d="M111 813 l-93 -188 62 -125 c100 -202 125 -250 130 -250 3 0 47 84
98 187 l93 188 -93 188 c-50 103 -95 187 -98 187 -3 0 -47 -84 -99 -187z"/>
</g>
</svg>
